<?xml version="1.0" encoding="UTF-8" standalone="no"?>
<svg
   xmlns:dc="http://purl.org/dc/elements/1.1/"
   xmlns:cc="http://creativecommons.org/ns#"
   xmlns:rdf="http://www.w3.org/1999/02/22-rdf-syntax-ns#"
   xmlns:svg="http://www.w3.org/2000/svg"
   xmlns="http://www.w3.org/2000/svg"
   xmlns:sodipodi="http://sodipodi.sourceforge.net/DTD/sodipodi-0.dtd"
   xmlns:inkscape="http://www.inkscape.org/namespaces/inkscape"
   width="193.76534"
   height="193.76399"
   viewBox="0 0 193.76534 193.76399"
   version="1.1"
   id="SVGRoot"
   inkscape:version="1.0.1 (3bc2e813f5, 2020-09-07)"
   sodipodi:docname="ooo_logo_no_text_linesonly_grayish_outlined.svg"
   inkscape:export-filename="/home/arc/ooo_logo_no_text_linesonly_grayish_outlined.png"
   inkscape:export-xdpi="253.66766"
   inkscape:export-ydpi="253.66766">
  <title
     id="title4335">OOO no-text logo</title>
  <defs
     id="defs1371">
    <filter
       inkscape:label="Jigsaw Piece"
       inkscape:menu="Bevels"
       inkscape:menu-tooltip="Low, sharp bevel"
       style="color-interpolation-filters:sRGB;"
       id="filter1136">
      <feSpecularLighting
         in="SourceAlpha"
         surfaceScale="-2.3883582805765085"
         specularConstant="0.52095853365384615"
         specularExponent="18.5"
         id="feSpecularLighting1128">
        <feDistantLight
           elevation="30"
           azimuth="225"
           id="feDistantLight1126" />
      </feSpecularLighting>
      <feComposite
         result="result0"
         operator="atop"
         id="feComposite1130"
         in2="SourceGraphic" />
      <feMorphology
         radius="1.1362072172619049"
         result="result1"
         operator="dilate"
         id="feMorphology1132"
         in="SourceAlpha" />
      <feComposite
         id="feComposite1134"
         in2="result1"
         in="result0" />
    </filter>
  </defs>
  <sodipodi:namedview
     id="base"
     pagecolor="#6c6c6c"
     bordercolor="#666666"
     borderopacity="1.0"
     inkscape:pageopacity="0"
     inkscape:pageshadow="2"
     inkscape:zoom="2.6666666"
     inkscape:cx="132.46581"
     inkscape:cy="32.968249"
     inkscape:document-units="px"
     inkscape:current-layer="g4296"
     showgrid="false"
     inkscape:window-width="1848"
     inkscape:window-height="1016"
     inkscape:window-x="1992"
     inkscape:window-y="27"
     inkscape:window-maximized="1"
     inkscape:grid-bbox="true"
     fit-margin-top="0"
     fit-margin-left="0"
     fit-margin-right="0"
     fit-margin-bottom="0"
     inkscape:pagecheckerboard="false"
     inkscape:document-rotation="0" />
  <metadata
     id="metadata1374">
    <rdf:RDF>
      <cc:Work
         rdf:about="">
        <dc:format>image/svg+xml</dc:format>
        <dc:type
           rdf:resource="http://purl.org/dc/dcmitype/StillImage" />
        <dc:title>OOO no-text logo</dc:title>
        <dc:creator>
          <cc:Agent>
            <dc:title>Order of the Overflow</dc:title>
          </cc:Agent>
        </dc:creator>
      </cc:Work>
    </rdf:RDF>
  </metadata>
  <g
     inkscape:label="Layer 1"
     inkscape:groupmode="layer"
     id="layer1"
     transform="translate(0.88266424,0.13199516)">
    <g
       id="g4296"
       transform="translate(-1.5,3)">
      <g
         id="g858"
         style="filter:url(#filter1136)">
        <g
           transform="matrix(1.3333333,0,0,-1.3333333,122.6061,93.777863)"
           id="g2370">
          <path
             inkscape:connector-curvature="0"
             id="path2372"
             style="fill:#222527;fill-opacity:1;fill-rule:nonzero;stroke:none"
             d="M 0,0 C 0.021,0 0.043,-0.002 0.064,-0.002 0.086,-0.002 0.107,0 0.128,0 0.107,0.037 0.086,0.074 0.064,0.111 0.042,0.074 0.021,0.037 0,0" />
        </g>
        <g
           transform="matrix(1.3333333,0,0,-1.3333333,42.1511,61.784933)"
           id="g2406">
          <path
             inkscape:connector-curvature="0"
             id="path2408"
             style="fill:#cccac6;fill-opacity:1;fill-rule:nonzero;stroke:none"
             d="M 0,0 41.495,-71.871 82.989,0 Z m 41.495,-75.621 c -0.447,0 -0.86,0.239 -1.083,0.625 L -3.248,0.625 c -0.223,0.387 -0.223,0.863 0,1.25 0.224,0.387 0.636,0.625 1.083,0.625 h 87.319 c 0.447,0 0.859,-0.238 1.082,-0.625 0.223,-0.387 0.223,-0.863 0,-1.25 L 42.577,-74.996 c -0.223,-0.386 -0.636,-0.625 -1.082,-0.625" />
        </g>
        <g
           transform="matrix(1.3333333,0,0,-1.3333333,71.2572,108.86507)"
           id="g2410">
          <path
             inkscape:connector-curvature="0"
             id="path2412"
             style="fill:#cccac6;fill-opacity:1;fill-rule:nonzero;stroke:none"
             d="M 0,0 H 39.33 L 19.665,34.06 Z m 41.495,-2.5 h -43.66 c -0.447,0 -0.859,0.238 -1.083,0.625 -0.223,0.387 -0.223,0.863 0,1.25 l 21.831,37.81 c 0.446,0.773 1.718,0.773 2.165,0 l 21.829,-37.81 c 0.223,-0.387 0.223,-0.863 0,-1.25 C 42.354,-2.262 41.941,-2.5 41.495,-2.5" />
        </g>
        <g
           transform="matrix(1.3333333,0,0,-1.3333333,126.5833,78.536933)"
           id="g2414">
          <path
             inkscape:connector-curvature="0"
             id="path2416"
             style="fill:#cccac6;fill-opacity:1;fill-rule:nonzero;stroke:none"
             d="m 0,0 c -6.41,0 -12.436,-2.496 -16.968,-7.028 -4.532,-4.532 -7.029,-10.558 -7.029,-16.968 0,-6.409 2.497,-12.436 7.029,-16.969 4.532,-4.532 10.559,-7.028 16.968,-7.028 6.409,0 12.436,2.496 16.968,7.028 4.532,4.533 7.029,10.56 7.029,16.969 0,6.409 -2.497,12.435 -7.029,16.968 C 12.436,-2.496 6.41,0 0,0 m 0,-50.493 c -7.077,0 -13.731,2.756 -18.736,7.761 -5.005,5.004 -7.761,11.659 -7.761,18.736 0,7.078 2.757,13.731 7.761,18.735 C -13.731,-0.256 -7.078,2.5 0,2.5 c 7.078,0 13.731,-2.756 18.736,-7.761 5.004,-5.004 7.761,-11.658 7.761,-18.735 0,-7.077 -2.756,-13.731 -7.761,-18.736 C 13.731,-47.737 7.077,-50.493 0,-50.493" />
        </g>
        <g
           transform="matrix(1.3333333,0,0,-1.3333333,68.3704,78.536933)"
           id="g2418">
          <path
             inkscape:connector-curvature="0"
             id="path2420"
             style="fill:#cccac6;fill-opacity:1;fill-rule:nonzero;stroke:none"
             d="m 0,0 c -6.41,0 -12.436,-2.496 -16.968,-7.028 -4.532,-4.533 -7.028,-10.558 -7.028,-16.968 0,-6.409 2.496,-12.436 7.028,-16.969 4.532,-4.532 10.559,-7.028 16.968,-7.028 6.409,0 12.436,2.496 16.968,7.028 4.532,4.533 7.029,10.56 7.029,16.969 0,6.41 -2.497,12.436 -7.029,16.968 C 12.436,-2.496 6.41,0 0,0 m 0,-50.493 c -7.077,0 -13.731,2.756 -18.736,7.761 -5.004,5.004 -7.76,11.659 -7.76,18.736 0,7.077 2.756,13.731 7.76,18.735 C -13.731,-0.256 -7.078,2.5 0,2.5 c 7.078,0 13.731,-2.756 18.736,-7.761 5.004,-5.004 7.761,-11.657 7.761,-18.735 0,-7.077 -2.757,-13.732 -7.761,-18.736 C 13.731,-47.737 7.077,-50.493 0,-50.493" />
        </g>
        <g
           transform="matrix(1.3333333,0,0,-1.3333333,97.4772,28.122933)"
           id="g2422">
          <path
             inkscape:connector-curvature="0"
             id="path2424"
             style="fill:#cccac6;fill-opacity:1;fill-rule:nonzero;stroke:none"
             d="m 0,0 c -6.41,0 -12.436,-2.496 -16.968,-7.028 -4.532,-4.533 -7.029,-10.559 -7.029,-16.969 0,-6.409 2.497,-12.436 7.029,-16.968 4.531,-4.532 10.558,-7.028 16.968,-7.028 6.41,0 12.436,2.496 16.968,7.028 4.532,4.532 7.028,10.559 7.028,16.968 0,6.41 -2.496,12.436 -7.028,16.969 C 12.436,-2.496 6.41,0 0,0 m 0,-50.493 c -7.078,0 -13.732,2.756 -18.736,7.761 -5.004,5.004 -7.761,11.658 -7.761,18.735 0,7.078 2.757,13.732 7.761,18.736 C -13.731,-0.256 -7.078,2.5 0,2.5 c 7.077,0 13.731,-2.756 18.735,-7.761 5.005,-5.004 7.761,-11.658 7.761,-18.736 0,-7.077 -2.756,-13.731 -7.761,-18.735 C 13.731,-47.737 7.078,-50.493 0,-50.493" />
        </g>
      </g>
    </g>
  </g>
</svg>
